<svg width="32" height="32" viewBox="0 0 32 32" fill="none" xmlns="http://www.w3.org/2000/svg">
<g opacity="0.6" clip-path="url(#clip0)">
<path d="M21.3333 5.33333H10.6666C7.72107 5.33333 5.33325 7.72114 5.33325 10.6667V21.3333C5.33325 24.2788 7.72107 26.6667 10.6666 26.6667H21.3333C24.2788 26.6667 26.6666 24.2788 26.6666 21.3333V10.6667C26.6666 7.72114 24.2788 5.33333 21.3333 5.33333Z" stroke="#202142" stroke-width="2" stroke-linecap="round" stroke-linejoin="round"/>
<path d="M16 20C18.2091 20 20 18.2091 20 16C20 13.7909 18.2091 12 16 12C13.7909 12 12 13.7909 12 16C12 18.2091 13.7909 20 16 20Z" stroke="#202142" stroke-width="2" stroke-linecap="round" stroke-linejoin="round"/>
<path d="M22 10V10.001" stroke="#202142" stroke-width="2" stroke-linecap="round" stroke-linejoin="round"/>
</g>
<defs>
<clipPath id="clip0">
<rect width="32" height="32" fill="white"/>
</clipPath>
</defs>
</svg>
