<svg width="32" height="32" viewBox="0 0 32 32" fill="none" xmlns="http://www.w3.org/2000/svg">
<g opacity="0.6" clip-path="url(#clip0)">
<path d="M29.3334 5.34666C28.0001 6 26.6934 6.26533 25.3334 6.66666C23.8387 4.97999 21.6227 4.88666 19.4934 5.68399C17.3641 6.48133 15.9694 8.43066 16.0001 10.6667V12C11.6734 12.1107 7.82008 10.14 5.33341 6.66666C5.33341 6.66666 -0.242585 16.5773 10.6667 21.3333C8.17075 22.996 5.68141 24.1173 2.66675 24C7.07741 26.404 11.8841 27.2307 16.0454 26.0227C20.8187 24.636 24.7414 21.0587 26.2467 15.7C26.6958 14.0702 26.9188 12.3865 26.9094 10.696C26.9067 10.364 28.9227 6.99999 29.3334 5.34533V5.34666Z" stroke="#202142" stroke-width="2" stroke-linecap="round" stroke-linejoin="round"/>
</g>
<defs>
<clipPath id="clip0">
<rect width="32" height="32" fill="white"/>
</clipPath>
</defs>
</svg>
